<svg width="350" height="390" viewBox="0 0 350 390" fill="none" xmlns="http://www.w3.org/2000/svg">
<path d="M68 144C68 88.7715 112.772 44 168 44H181C236.228 44 281 88.7715 281 144V346H68V144Z" fill="#323232"/>
<rect x="141" y="185" width="68.2139" height="128.131" rx="13.7769" fill="white" stroke="#323232" stroke-width="4" stroke-linecap="round"/>
<path d="M108 163C121.45 163 132 172.811 132 184.5C132 196.189 121.45 206 108 206C94.5501 206 84 196.189 84 184.5C84 172.811 94.5501 163 108 163Z" fill="white" stroke="#323232" stroke-width="4"/>
<path d="M243 163C229.55 163 219 172.811 219 184.5C219 196.189 229.55 206 243 206C256.45 206 267 196.189 267 184.5C267 172.811 256.45 163 243 163Z" fill="white" stroke="#323232" stroke-width="4"/>
<path d="M176.03 81C197.043 81.0001 213.473 92.8931 224.74 110.611C236.026 128.358 242 151.787 242 174.262C242 196.713 236.042 213.834 224.985 225.337C213.941 236.828 197.532 243 176.03 243C154.527 243 137.842 236.826 126.528 225.32C115.211 213.81 109 196.69 109 174.262C109 151.804 115.232 128.379 126.779 110.629C138.311 92.9027 155.009 81 176.03 81Z" fill="white" stroke="#323232" stroke-width="4" stroke-linecap="round"/>
<path d="M206.838 117.678C178.838 157.678 153.136 160.762 106 165C114.748 103.794 110.5 82 182.5 79C240 82.5 238.619 113.613 240 165C222.838 155.678 219.182 149.481 206.838 117.678Z" fill="#323232"/>
<path d="M140.181 271.032C140.638 270.821 141.303 270.989 141.637 271.566C157.781 299.54 196.874 297.35 209.064 271.821C209.396 271.127 210.144 270.922 210.623 271.139C237.581 283.357 255.284 296.353 267.373 313.32C279.476 330.307 286.102 351.482 290.512 380.355C290.604 380.958 290.132 381.5 289.537 381.5H59.4707C58.8779 381.5 58.4053 380.956 58.5 380.354C63.2634 350.036 71.0976 328.611 83.9307 311.852C96.7646 295.091 114.747 282.803 140.181 271.032Z" fill="white" stroke="#323232" stroke-width="4" stroke-linecap="round" stroke-linejoin="round"/>
</svg>
