<svg width="350" height="390" viewBox="0 0 350 390" fill="none" xmlns="http://www.w3.org/2000/svg">
<rect x="141" y="185" width="68.2139" height="128.131" rx="13.7769" fill="white" stroke="#323232" stroke-width="4" stroke-linecap="round"/>
<path d="M111 159.797C124.45 159.797 135 169.609 135 181.297C135 192.986 124.45 202.797 111 202.797C97.5501 202.797 87 192.986 87 181.297C87 169.609 97.5501 159.797 111 159.797Z" fill="white" stroke="#323232" stroke-width="4"/>
<path d="M242 159.797C228.55 159.797 218 169.609 218 181.297C218 192.986 228.55 202.797 242 202.797C255.45 202.797 266 192.986 266 181.297C266 169.609 255.45 159.797 242 159.797Z" fill="white" stroke="#323232" stroke-width="4"/>
<g clip-path="url(#clip0_203_354)">
<path d="M177.03 92.4753C198.131 92.4754 214.56 103.339 225.788 119.4C237.044 135.501 243 156.751 243 177.129C243 197.469 237.072 212.968 226.053 223.397C215.016 233.842 198.583 239.475 177.03 239.475C155.477 239.475 138.768 233.842 127.461 223.382C116.178 212.943 110 197.444 110 177.129C110 156.77 116.211 135.523 127.729 119.418C139.223 103.346 155.923 92.4753 177.03 92.4753Z" fill="white" stroke="#323232" stroke-width="4" stroke-linecap="round"/>
</g>
<path d="M96.5001 119.797C94.8598 97.724 101 86.2973 119.5 81.7973C119.5 81.7973 174.5 27.2974 223 63.2974C271.5 99.2973 241.5 160.5 241.5 160.5C230 145 224.966 141.893 226 122.297C184.157 134.871 166.716 131.147 143.5 105.297C140.481 121.987 137 128 125 135C127.147 147.313 114.5 158 111 161.5C99.8362 149.258 97.7231 140.302 96.5001 119.797Z" fill="#323232"/>
<path d="M140.181 271.032C140.638 270.821 141.303 270.989 141.637 271.566C157.781 299.54 196.874 297.35 209.064 271.821C209.396 271.127 210.144 270.922 210.623 271.139C237.581 283.357 255.284 296.353 267.373 313.32C279.476 330.307 286.102 351.482 290.512 380.355C290.604 380.958 290.132 381.5 289.537 381.5H59.4707C58.8779 381.5 58.4053 380.956 58.5 380.354C63.2634 350.036 71.0976 328.611 83.9307 311.852C96.7646 295.091 114.747 282.803 140.181 271.032Z" fill="white" stroke="#323232" stroke-width="4" stroke-linecap="round" stroke-linejoin="round"/>
<path d="M138.617 271.761C139.253 271.462 140 271.924 140 272.65V380.5C140 381.052 139.552 381.5 139 381.5H59.4707C58.8779 381.5 58.4054 380.956 58.5 380.354C63.2144 350.348 70.9368 329.053 83.5352 312.372C96.1322 295.692 113.749 283.433 138.617 271.761Z" fill="#323232" stroke="#323232" stroke-width="4" stroke-linecap="round" stroke-linejoin="round"/>
<path d="M211.383 271.761C210.747 271.462 210 271.924 210 272.65V380.5C210 381.052 210.448 381.5 211 381.5H290.529C291.122 381.5 291.595 380.956 291.5 380.354C286.786 350.348 279.063 329.053 266.465 312.372C253.868 295.692 236.251 283.433 211.383 271.761Z" fill="#323232" stroke="#323232" stroke-width="4" stroke-linecap="round" stroke-linejoin="round"/>
<defs>
<clipPath id="clip0_203_354">
<rect width="137" height="190" fill="white" transform="translate(108 51.7974)"/>
</clipPath>
</defs>
</svg>
