<svg width="350" height="390" viewBox="0 0 350 390" fill="none" xmlns="http://www.w3.org/2000/svg">
<path d="M68 144C68 88.7715 112.772 44 168 44H181C236.228 44 281 88.7715 281 144V346H68V144Z" fill="#323232"/>
<rect x="141" y="185" width="68.2139" height="128.131" rx="13.7769" fill="white" stroke="#323232" stroke-width="4" stroke-linecap="round"/>
<path d="M142.896 267.634V226.678H211.5C206.333 247.68 175.523 268.768 142.896 267.634Z" fill="#7E7E7E" fill-opacity="0.45"/>
<path d="M108 163C121.45 163 132 172.811 132 184.5C132 196.189 121.45 206 108 206C94.5501 206 84 196.189 84 184.5C84 172.811 94.5501 163 108 163Z" fill="white" stroke="#323232" stroke-width="4"/>
<path d="M243 163C229.55 163 219 172.811 219 184.5C219 196.189 229.55 206 243 206C256.45 206 267 196.189 267 184.5C267 172.811 256.45 163 243 163Z" fill="white" stroke="#323232" stroke-width="4"/>
<path d="M176.03 81C197.043 81.0001 213.473 92.8931 224.74 110.611C236.026 128.358 242 151.787 242 174.262C242 196.713 236.042 213.834 224.985 225.337C213.941 236.828 197.532 243 176.03 243C154.527 243 137.842 236.826 126.528 225.32C115.211 213.81 109 196.69 109 174.262C109 151.804 115.232 128.379 126.779 110.629C138.311 92.9027 155.009 81 176.03 81Z" fill="white" stroke="#323232" stroke-width="4" stroke-linecap="round"/>
<path d="M176 173C174.029 179.812 173 183.371 173 190.458C175.64 191.72 178.163 192.036 182.5 192" stroke="#323232" stroke-width="4" stroke-linecap="round" stroke-linejoin="round"/>
<path d="M140.768 165.178C142.829 165.178 144.657 166.293 145.953 168.021C147.249 169.748 148.035 172.112 148.035 174.701C148.035 177.291 147.249 179.655 145.953 181.382C144.657 183.11 142.829 184.225 140.768 184.225C138.706 184.225 136.878 183.11 135.582 181.382C134.286 179.655 133.5 177.291 133.5 174.701C133.5 172.112 134.286 169.748 135.582 168.021C136.878 166.293 138.706 165.178 140.768 165.178Z" fill="#323232" stroke="#323232" stroke-linecap="round"/>
<circle cx="143.616" cy="172.487" r="2.5" fill="white" stroke="#323232"/>
<path d="M212.768 165.178C214.829 165.178 216.657 166.293 217.953 168.021C219.249 169.748 220.035 172.112 220.035 174.701C220.035 177.291 219.249 179.655 217.953 181.382C216.657 183.11 214.829 184.225 212.768 184.225C210.706 184.225 208.878 183.11 207.582 181.382C206.286 179.655 205.5 177.291 205.5 174.701C205.5 172.112 206.286 169.748 207.582 168.021C208.878 166.293 210.706 165.178 212.768 165.178Z" fill="#323232" stroke="#323232" stroke-linecap="round"/>
<circle cx="215.616" cy="172.487" r="2" fill="white"/>
<path d="M168 207.5C171 211.167 178.8 216.3 186 207.5" stroke="#323232" stroke-width="4" stroke-linecap="round" stroke-linejoin="round"/>
<path d="M206.838 117.678C178.838 157.678 153.136 160.762 106 165C114.748 103.794 110.5 82 182.5 79C240 82.5 238.619 113.613 240 165C222.838 155.678 219.182 149.481 206.838 117.678Z" fill="#323232"/>
<path d="M140.181 271.032C140.638 270.821 141.303 270.989 141.637 271.566C157.781 299.54 196.874 297.35 209.064 271.821C209.396 271.127 210.144 270.922 210.623 271.139C237.581 283.357 255.284 296.353 267.373 313.32C279.476 330.307 286.102 351.482 290.512 380.355C290.604 380.958 290.132 381.5 289.537 381.5H59.4707C58.8779 381.5 58.4053 380.956 58.5 380.354C63.2634 350.036 71.0976 328.611 83.9307 311.852C96.7646 295.091 114.747 282.803 140.181 271.032Z" fill="white" stroke="#323232" stroke-width="4" stroke-linecap="round" stroke-linejoin="round"/>
<path d="M141.5 272C145.893 314.359 146.947 339.359 142 380.5" stroke="#323232" stroke-width="4"/>
<path d="M210.776 272.5C206.384 314.859 205.329 339.859 210.276 381" stroke="#323232" stroke-width="4"/>
<path fill-rule="evenodd" clip-rule="evenodd" d="M247.966 324.402C246.246 319.199 238.754 319.199 237.034 324.402L236.371 326.407C235.601 328.734 233.394 330.309 230.905 330.309H228.758C223.191 330.309 220.876 337.309 225.38 340.524L227.116 341.764C229.131 343.202 229.974 345.751 229.204 348.077L228.541 350.083C226.821 355.285 232.881 359.611 237.386 356.396L239.122 355.157C241.136 353.719 243.864 353.719 245.878 355.157L247.614 356.396C252.119 359.611 258.179 355.285 256.459 350.083L255.796 348.077C255.026 345.751 255.869 343.202 257.884 341.764L259.62 340.524C264.124 337.309 261.809 330.309 256.242 330.309H254.095C251.606 330.309 249.399 328.734 248.629 326.407L247.966 324.402ZM242.5 345.99C245.674 345.99 248.247 343.461 248.247 340.343C248.247 337.224 245.674 334.696 242.5 334.696C239.326 334.696 236.753 337.224 236.753 340.343C236.753 343.461 239.326 345.99 242.5 345.99Z" fill="#323232"/>
</svg>
